Patient4_TMGait_0pt7_02_left_29_GRF.mot
version=1
nRows=71
nColumns=19
inDegrees=no
endheader
time	F1x	F1y	F1z	M1x	M1y	M1z	F2x	F2y	F2z	M2x	M2y	M2z	EC1x	EC1y	EC1z	EC2x	EC2y	EC2z
33.06	-50.6873	36.5499	-7.0678	-10.1795	-6.2443	51.3229	-72.4572	682.6772	-63.6273	261.3302	98.0512	785.1622	-0.0592	0.0182	-0.0073	-0.0462	0.0165	0.9585
33.0719	-34.6514	25.8914	-4.7317	-7.3247	-4.3692	36.0479	-59.8354	694.483	-66.0294	264.6259	97.1037	793.1453	-0.0592	0.0182	-0.0073	-0.0462	0.0165	0.9585
33.0837	-21.1662	16.9854	-2.7835	-4.9244	-2.7904	23.3152	-47.8095	707.0922	-67.5979	268.5758	95.1331	800.69	-0.0592	0.0182	-0.0073	-0.0462	0.0165	0.9585
33.0956	-10.886	10.2703	-1.2994	-3.1046	-1.5938	13.705	-36.8881	720.3182	-68.3684	273.1629	92.3046	807.7625	-0.0592	0.0182	-0.0073	-0.0462	0.0165	0.9585
33.1074	-3.8463	5.7356	-0.29743	-1.8654	-0.76552	7.2411	-27.2189	734.0672	-68.4583	278.3153	88.8267	814.5126	-0.0592	0.0182	-0.0073	-0.0462	0.0165	0.9585
33.1193	0.51572	2.9895	0.30966	-1.1081	-0.24388	3.3141	-18.8274	748.0429	-68.1515	283.8342	85.0674	820.9271	-0.0592	0.0182	-0.0073	-0.0462	0.0165	0.9585
33.1311	2.7488	1.5894	0.62555	-0.7124	0.012081	1.356	-11.6186	761.7265	-67.6015	289.4193	81.2459	826.7405	-0.0592	0.0182	-0.0073	-0.0462	0.0165	0.9585
33.143	3.5725	1.0241	0.73907	-0.54302	0.096355	0.59461	-5.4889	774.3621	-67.0135	294.6844	77.6121	831.4329	-0.0592	0.0182	-0.0073	-0.0462	0.0165	0.9585
33.1549	3.4421	0.89972	0.75692	-0.48359	0.021802	0.50454	-0.28438	785.0623	-66.3784	299.2189	74.1781	834.2864	-0.0592	0.0182	-0.0073	-0.0462	0.0165	0.9585
33.1667	2.8521	0.80562	0.71699	-0.41871	-0.12215	0.47649	4.1692	792.9591	-65.7237	302.6358	70.9612	834.5624	-0.0592	0.0182	-0.0073	-0.0462	0.0165	0.9585
33.1786	2.0359	0.47297	0.68737	-0.26084	-0.33532	0.18277	8.0789	797.2757	-64.9535	304.6145	67.8301	831.5535	-0.0592	0.0182	-0.0073	-0.0462	0.0165	0.9585
33.1904	1.2409	-0.36652	0.65728	0.069098	-0.5371	-0.76642	11.6395	797.5068	-64.0407	304.95	64.7093	824.7951	-0.0592	0.0182	-0.0073	-0.0462	0.0165	0.9585
33.2023	0.54021	-1.8385	0.6466	0.61567	-0.7178	-2.4946	15.0481	793.5317	-62.9355	303.5917	61.4964	814.1906	-0.0592	0.0182	-0.0073	-0.0462	0.0165	0.9585
33.2141	0.059193	-3.982	0.61674	1.3859	-0.80281	-5.0771	18.4264	785.5874	-61.6417	300.6332	58.1536	799.9891	-0.0592	0.0182	-0.0073	-0.0462	0.0165	0.9585
33.226	-0.17426	-6.6263	0.53862	2.3191	-0.74422	-8.2856	21.8529	774.2823	-60.2176	296.2988	54.7105	782.8128	-0.0592	0.0182	-0.0073	-0.0462	0.0165	0.9585
33.2379	-0.06364	-9.349	0.35788	3.2595	-0.44319	-11.6198	25.3626	760.4153	-58.748	290.8825	51.2394	763.4637	-0.0592	0.0182	-0.0073	-0.0462	0.0165	0.9585
33.2497	0.45482	-11.369	0.019034	3.9291	0.19372	-14.1267	28.9116	744.8645	-57.4096	284.7054	47.9249	742.8535	-0.0592	0.0182	-0.0073	-0.0462	0.0165	0.9585
33.2616	1.463	-11.4632	-0.5362	3.8942	1.2634	-14.3305	32.4805	728.4962	-56.3437	278.0875	44.9203	721.8762	-0.0592	0.0182	-0.0073	-0.0462	0.0165	0.9585
33.2734	3.0146	-7.8919	-1.3582	2.5429	2.8451	-10.1178	35.9612	712.0676	-55.7255	271.3147	42.4223	701.3191	-0.0592	0.0182	-0.0073	-0.0462	0.0165	0.9585
33.2853	5.09	1.5966	-2.456	-0.91148	4.9443	1.2565	39.3017	696.1741	-55.5946	264.6242	40.4867	681.7723	-0.0592	0.0182	-0.0073	-0.0462	0.0165	0.9585
33.2971	7.5741	19.5933	-3.7772	-7.3704	7.4531	22.9494	42.3738	681.1895	-55.9364	258.1779	39.136	663.6219	-0.0592	0.0182	-0.0073	-0.0462	0.0165	0.9585
33.309	10.1451	48.7183	-5.1597	-17.7342	10.0572	58.1894	45.072	667.1087	-56.5657	252.0152	38.2287	646.8287	-0.0592	0.0182	-0.0073	-0.0462	0.0165	0.9585
33.3209	12.2357	90.8579	-6.2973	-32.6342	12.1659	109.3111	47.243	653.5576	-57.2432	246.0384	37.5873	631.0334	-0.0592	0.0182	-0.0073	-0.0462	0.0165	0.9585
33.3327	12.8607	146.161	-6.6883	-52.0652	12.7982	176.6041	48.7568	639.6488	-57.615	239.9717	36.9245	615.3508	-0.0592	0.0182	-0.0073	-0.0462	0.0165	0.9585
33.3446	10.702	211.5372	-5.5758	-74.8741	10.5612	256.4256	49.4128	624.104	-57.3322	233.3845	35.9873	598.5617	-0.0592	0.0182	-0.0073	-0.0462	0.0165	0.9585
33.3564	4.729	280.2099	-2.0649	-98.5979	4.0326	340.694	49.1051	605.4228	-56.0762	225.7637	34.5274	579.1904	-0.0592	0.0182	-0.0073	-0.0462	0.0165	0.9585
33.3683	-3.9917	343.1131	4.5711	-120.0285	-7.2081	418.2762	47.7578	582.3328	-53.6828	216.6631	32.4353	555.9968	-0.0592	0.0182	-0.0073	-0.0462	0.0165	0.9585
33.3801	-13.2755	393.0333	13.5775	-136.7107	-21.4302	480.0957	45.5096	554.0558	-50.2063	205.8055	29.7381	528.1373	-0.0592	0.0182	-0.0073	-0.0462	0.0165	0.9585
33.392	-21.7721	428.8106	23.4105	-148.3039	-36.273	524.4621	42.5746	520.549	-45.933	193.1525	26.6361	495.5039	-0.0592	0.0182	-0.0073	-0.0462	0.0165	0.9585
33.4039	-29.3472	454.263	32.6837	-156.2066	-50.0267	556.0279	39.2678	482.2644	-41.2774	178.8372	23.3994	458.4368	-0.0592	0.0182	-0.0073	-0.0462	0.0165	0.9585
33.4157	-36.0223	474.5252	40.3293	-162.2877	-61.4466	581.0556	35.8324	440.0123	-36.6074	163.1154	20.2638	417.674	-0.0592	0.0182	-0.0073	-0.0462	0.0165	0.9585
33.4276	-41.9158	493.548	45.7753	-167.9758	-69.9108	604.4737	32.446	394.73	-32.1249	146.3086	17.3422	374.0899	-0.0592	0.0182	-0.0073	-0.0462	0.0165	0.9585
33.4394	-46.8179	513.1145	48.9551	-173.932	-75.3053	628.3888	29.0464	347.584	-27.8457	128.8318	14.6577	328.8383	-0.0592	0.0182	-0.0073	-0.0462	0.0165	0.9585
33.4513	-50.4537	533.8984	50.5235	-180.3515	-78.3094	653.5401	25.5267	299.9222	-23.794	111.1729	12.2621	283.2341	-0.0592	0.0182	-0.0073	-0.0462	0.0165	0.9585
33.4631	-52.4735	555.7117	51.3386	-187.1217	-79.8613	679.6041	21.6863	253.2064	-20.0055	93.8658	10.241	238.7103	-0.0592	0.0182	-0.0073	-0.0462	0.0165	0.9585
33.475	-53.0419	577.784	52.3448	-193.9214	-81.1311	705.6023	17.4833	208.9409	-16.6096	77.4567	8.722	196.6962	-0.0592	0.0182	-0.0073	-0.0462	0.0165	0.9585
33.4869	-52.5506	599.1785	54.111	-200.4114	-82.9338	730.3585	12.9964	168.5162	-13.7055	62.4558	7.7573	158.4867	-0.0592	0.0182	-0.0073	-0.0462	0.0165	0.9585
33.4987	-51.3908	619.4262	56.7783	-206.452	-85.5749	753.2932	8.4819	133.0263	-11.3449	49.2666	7.294	125.061	-0.0592	0.0182	-0.0073	-0.0462	0.0165	0.9585
33.5106	-49.8716	638.568	60.1581	-212.1075	-88.9262	774.3184	4.2991	103.0636	-9.4889	38.112	7.1626	96.915	-0.0592	0.0182	-0.0073	-0.0462	0.0165	0.9585
33.5224	-48.1861	656.716	63.8306	-217.4861	-92.5496	793.4958	0.69732	78.5768	-8.029	28.9876	7.1653	73.957	-0.0592	0.0182	-0.0073	-0.0462	0.0165	0.9585
33.5343	-46.3888	673.9816	67.3789	-222.6901	-95.9537	810.872	-2.1678	59.107	-6.838	21.7327	7.1337	55.7231	-0.0592	0.0182	-0.0073	-0.0462	0.0165	0.9585
33.5461	-44.5177	690.3414	70.4371	-227.7676	-98.7039	826.3281	-4.3141	43.9174	-5.8021	16.0794	6.9691	41.5296	-0.0592	0.0182	-0.0073	-0.0462	0.0165	0.9585
33.558	-42.4558	705.7133	72.904	-232.7243	-100.617	839.7084	-5.7239	32.1459	-4.8356	11.7127	6.5932	30.5661	-0.0592	0.0182	-0.0073	-0.0462	0.0165	0.9585
33.5699	-40.0042	720.1281	74.7992	-237.5827	-101.636	850.9741	-6.4044	23.0311	-3.8844	8.3453	5.9599	22.1307	-0.0592	0.0182	-0.0073	-0.0462	0.0165	0.9585
33.5817	-36.984	733.6305	76.2418	-242.3592	-101.8191	860.1512	-6.3336	15.9138	-2.9365	5.7364	5.0549	15.579	-0.0592	0.0182	-0.0073	-0.0462	0.0165	0.9585
33.5936	-33.1977	746.3774	77.283	-247.0915	-101.1694	867.4555	-5.5913	10.4287	-2.0212	3.7421	3.9374	10.5732	-0.0592	0.0182	-0.0073	-0.0462	0.0165	0.9585
33.6054	-28.5992	758.5082	77.9778	-251.7942	-99.7467	873.1954	-4.3877	6.3767	-1.209	2.2854	2.7585	6.8859	-0.0592	0.0182	-0.0073	-0.0462	0.0165	0.9585
33.6173	-23.3056	770.0414	78.3373	-256.4231	-97.6201	877.5964	-3.133	3.6721	-0.56452	1.3237	1.72	4.4504	-0.0592	0.0182	-0.0073	-0.0462	0.0165	0.9585
33.6291	-17.5831	780.7619	78.4221	-260.8303	-94.9673	880.7276	-1.9859	2.0487	-0.11783	0.75799	0.91048	2.9687	-0.0592	0.0182	-0.0073	-0.0462	0.0165	0.9585
33.641	-11.828	790.1335	78.3273	-264.7575	-92.0472	882.3196	-1.0988	1.2552	0.17174	0.49058	0.33477	2.2288	-0.0592	0.0182	-0.0073	-0.0462	0.0165	0.9585
33.6529	-6.4339	797.6165	78.1649	-267.9482	-89.1362	882.0854	-0.43775	0.9966	0.31161	0.41614	-0.023603	1.9337	-0.0592	0.0182	-0.0073	-0.0462	0.0165	0.9585
33.6647	-1.6374	802.7485	78.012	-270.1931	-86.4222	879.7686	-0.02183	1.0964	0.36475	0.46609	-0.22304	1.9733	-0.0592	0.0182	-0.0073	-0.0462	0.0165	0.9585
33.6766	2.3853	805.1796	77.8474	-271.3451	-83.9677	875.1438	0.24484	1.3649	0.34909	0.57647	-0.30636	2.1552	-0.0592	0.0182	-0.0073	-0.0462	0.0165	0.9585
33.6884	5.5668	804.6659	77.6265	-271.3207	-81.7645	868.0116	0.35301	1.7433	0.30783	0.72146	-0.31587	2.4699	-0.0592	0.0182	-0.0073	-0.0462	0.0165	0.9585
33.7003	7.9214	801.1037	77.2063	-270.1116	-79.6785	858.2929	0.38852	2.1463	0.25079	0.87403	-0.28269	2.8305	-0.0592	0.0182	-0.0073	-0.0462	0.0165	0.9585
33.7121	9.5062	794.5961	76.5118	-267.791	-77.6183	846.0432	0.3293	2.5533	0.19523	1.0247	-0.22263	3.2439	-0.0592	0.0182	-0.0073	-0.0462	0.0165	0.9585
33.724	10.4304	785.4156	75.4582	-264.4999	-75.4699	831.4655	0.24971	2.9128	0.14569	1.1581	-0.15691	3.6205	-0.0592	0.0182	-0.0073	-0.0462	0.0165	0.9585
33.7359	10.8717	774.0349	74.0462	-260.443	-73.1779	814.943	0.12267	3.1944	0.10251	1.2622	-0.078584	3.9438	-0.0592	0.0182	-0.0073	-0.0462	0.0165	0.9585
33.7477	11.0032	761.1155	72.3038	-255.8818	-70.7125	797.0173	-0.0065989	3.3302	0.067907	1.3122	0.001035	4.1053	-0.0592	0.0182	-0.0073	-0.0462	0.0165	0.9585
33.7596	11.0175	747.4492	70.3106	-251.1114	-68.0831	778.3794	-0.16188	3.2822	0.034148	1.2866	0.092951	4.066	-0.0592	0.0182	-0.0073	-0.0462	0.0165	0.9585
33.7714	11.1137	733.9437	68.1678	-246.4488	-65.3213	759.8487	-0.31634	2.9338	0.0095648	1.144	0.17964	3.6624	-0.0592	0.0182	-0.0073	-0.0462	0.0165	0.9585
33.7833	11.4335	721.469	65.9896	-242.1867	-62.4787	742.2249	-0.48792	2.1919	-0.012148	0.8452	0.2679	2.7844	-0.0592	0.0182	-0.0073	-0.0462	0.0165	0.9585
33.7951	12.1386	710.7522	63.9044	-238.5615	-59.6163	726.2062	-0.65427	0.9024	-0.03243	0.3368	0.34665	1.2227	-0.0592	0.0182	-0.0073	-0.0462	0.0165	0.9585
33.807	13.3431	702.3291	62.0422	-235.7326	-56.811	712.3221	-0.81007	-1.0323	-0.050005	-0.41893	0.40833	-1.1396	-0.0592	0.0182	-0.0073	-0.0462	0.0165	0.9585
33.8189	15.1328	696.3901	60.5352	-233.7403	-54.1539	700.7507	-0.88439	-3.6592	-0.061407	-1.4374	0.42661	-4.3702	-0.0592	0.0182	-0.0073	-0.0462	0.0165	0.9585
33.8307	17.5553	692.8645	59.4865	-232.5257	-51.7236	691.4547	-0.81504	-6.8577	-0.065042	-2.6724	0.37726	-8.3181	-0.0592	0.0182	-0.0073	-0.0462	0.0165	0.9585
33.8426	20.6301	691.373	58.9693	-231.9271	-49.5833	684.0916	-0.49591	-10.2731	-0.049342	-3.9838	0.20768	-12.5467	-0.0592	0.0182	-0.0073	-0.0462	0.0165	0.9585
33.8544	24.2901	691.4061	59.0022	-231.74	-47.7724	678.2217	0.19654	-13.1736	-0.0051363	-5.0898	-0.14489	-16.1541	-0.0592	0.0182	-0.0073	-0.0462	0.0165	0.9585
33.8663	28.5061	692.4434	59.5763	-231.7661	-46.3012	673.3907	1.3998	-14.3621	0.096033	-5.5277	-0.76386	-17.6837	-0.0592	0.0182	-0.0073	-0.0462	0.0165	0.9585
33.8781	33.1669	694.0318	60.654	-231.8439	-45.1781	669.2488	3.2421	-12.0747	0.27692	-4.6138	-1.7191	-14.9934	-0.0592	0.0182	-0.0073	-0.0462	0.0165	0.9585
33.89	38.179	695.8145	62.1691	-231.8597	-44.3838	665.4873	5.7873	-3.9288	0.55746	-1.4258	-3.0406	-5.1722	-0.0592	0.0182	-0.0073	-0.0462	0.0165	0.9585
